<?xml version="1.0" encoding="UTF-8" standalone="no"?>
<!DOCTYPE svg PUBLIC "-//W3C//DTD SVG 1.1//EN" "http://www.w3.org/Graphics/SVG/1.1/DTD/svg11.dtd">
<svg width="100%" height="100%" viewBox="0 0 836 159" version="1.1" xmlns="http://www.w3.org/2000/svg" xmlns:xlink="http://www.w3.org/1999/xlink" xml:space="preserve" xmlns:serif="http://www.serif.com/" style="fill-rule:evenodd;clip-rule:evenodd;stroke-linejoin:round;stroke-miterlimit:2;">
    <g transform="matrix(1,0,0,1,-94.2317,-83.0295)">
        <g transform="matrix(1,0,0,0.81864,0,0)">
            <g transform="matrix(18.1688,0,0,22.1938,-2948.39,-7125.22)">
                <g>
                    <g transform="matrix(0.0550396,0,0,0.0550396,162.839,315.12)">
                        <path d="M869.652,349.299C899.034,349.299 919.581,334.608 919.581,312.251L919.581,312.145C919.581,295.325 909.786,285.956 885.94,280.953L866.565,276.801C855.067,274.353 851.128,270.52 851.128,264.665L851.128,264.558C851.128,257.213 857.835,252.422 868.587,252.422C880.085,252.422 886.792,258.597 887.856,266.794L887.963,267.646L916.6,267.646L916.6,266.581C915.854,246.567 898.928,230.492 868.587,230.492C839.524,230.492 820.788,244.544 820.788,266.262L820.788,266.368C820.788,283.401 831.966,294.473 854.109,299.157L873.484,303.203C884.662,305.651 888.495,309.164 888.495,315.232L888.495,315.339C888.495,322.684 881.362,327.262 869.652,327.262C857.196,327.262 850.49,322.046 848.467,313.103L848.254,312.145L817.914,312.145L818.02,313.103C820.469,334.714 838.034,349.299 869.652,349.299ZM572.529,349.299C607.021,349.299 629.058,327.156 629.058,289.895L629.058,289.682C629.058,252.742 606.595,230.492 572.422,230.492C538.356,230.492 516,252.955 516,289.682L516,289.895C516,327.049 537.824,349.299 572.529,349.299ZM697.404,349.299C731.896,349.299 753.933,327.156 753.933,289.895L753.933,289.682C753.933,252.742 731.47,230.492 697.297,230.492C663.231,230.492 640.875,252.955 640.875,289.682L640.875,289.895C640.875,327.049 662.698,349.299 697.404,349.299ZM455.094,346.957L487.244,346.957L487.244,219.846L531.743,219.846L531.743,193.338L389.701,193.338L389.701,219.846L455.094,219.846L455.094,346.957ZM770.646,346.957L801.732,346.957L801.732,193.338L770.646,193.338L770.646,346.957ZM572.635,324.92C557.306,324.92 547.618,312.251 547.618,289.895L547.618,289.682C547.618,267.646 557.412,254.871 572.422,254.871C587.539,254.871 597.44,267.646 597.44,289.682L597.44,289.895C597.44,312.145 587.752,324.92 572.635,324.92ZM697.51,324.92C682.18,324.92 672.493,312.251 672.493,289.895L672.493,289.682C672.493,267.646 682.287,254.871 697.297,254.871C712.414,254.871 722.315,267.646 722.315,289.682L722.315,289.895C722.315,312.145 712.627,324.92 697.51,324.92Z" style="fill:url(#_Linear1);fill-rule:nonzero;"/>
                    </g>
                    <g transform="matrix(0.0550396,0,0,0.0550396,162.839,315.12)">
                        <path d="M146.002,349.618C184.753,349.618 207.961,330.882 207.961,301.393L207.961,301.286C207.961,277.12 193.482,264.026 161.332,257.639L145.044,254.339C127.372,250.825 119.494,245.183 119.494,235.496L119.494,235.389C119.494,224.424 129.395,216.866 145.896,216.759C161.758,216.759 172.83,224.105 174.426,236.134L174.533,237.412L204.873,237.412L204.767,235.389C203.276,208.455 181.453,190.677 145.896,190.677C111.829,190.677 87.344,209.201 87.344,237.305L87.344,237.412C87.344,260.513 102.674,274.991 133.014,281.059L149.196,284.253C168.252,288.192 175.81,293.408 175.81,303.841L175.81,303.948C175.81,315.658 164.632,323.43 146.854,323.43C129.288,323.43 116.62,315.977 114.597,304.054L114.384,302.883L84.044,302.883L84.15,304.587C85.96,332.904 109.487,349.618 146.002,349.618ZM258.421,346.957L289.826,346.957L318.144,244.012L318.783,244.012L346.994,346.957L378.399,346.957L419.172,193.338L385.851,193.338L361.472,303.415L360.834,303.415L332.516,193.338L304.305,193.338L275.987,303.415L275.348,303.415L251.076,193.338L217.755,193.338L258.421,346.957Z" style="fill:url(#_Linear2);fill-rule:nonzero;"/>
                    </g>
                </g>
            </g>
        </g>
    </g>
    <defs>
        <linearGradient id="_Linear1" x1="0" y1="0" x2="1" y2="0" gradientUnits="userSpaceOnUse" gradientTransform="matrix(529.879,0,0,155.96,389.701,271.319)"><stop offset="0" style="stop-color:rgb(203,203,203);stop-opacity:1"/><stop offset="1" style="stop-color:rgb(155,155,155);stop-opacity:1"/></linearGradient>
        <linearGradient id="_Linear2" x1="0" y1="0" x2="1" y2="0" gradientUnits="userSpaceOnUse" gradientTransform="matrix(312.956,180,-180,312.956,84.0439,179)"><stop offset="0" style="stop-color:rgb(48,137,255);stop-opacity:1"/><stop offset="1" style="stop-color:rgb(71,175,255);stop-opacity:1"/></linearGradient>
    </defs>
</svg>
